<?xml version="1.0" standalone="no"?>
<!DOCTYPE svg PUBLIC "-//W3C//DTD SVG 20010904//EN"
 "http://www.w3.org/TR/2001/REC-SVG-20010904/DTD/svg10.dtd">
<svg version="1.0" xmlns="http://www.w3.org/2000/svg"
 width="245.000000pt" height="245.000000pt" viewBox="0 0 245.000000 245.000000"
 preserveAspectRatio="xMidYMid meet">
<metadata>
Created by potrace 1.14, written by Peter Selinger 2001-2017
</metadata>
<g transform="translate(0.000000,245.000000) scale(0.100000,-0.100000)"
fill="#000000" stroke="none">
<path d="M1080 2443 c-68 -8 -206 -42 -275 -68 -64 -24 -215 -98 -240 -117 -5
-4 -39 -29 -74 -55 -108 -80 -230 -210 -297 -318 -10 -16 -21 -32 -24 -35 -14
-13 -81 -164 -108 -245 -45 -133 -60 -238 -57 -400 4 -150 6 -168 36 -288 41
-164 113 -308 223 -452 71 -90 265 -265 295 -265 6 0 11 -4 11 -10 0 -5 5 -10
10 -10 6 0 29 -12 51 -26 75 -47 251 -111 359 -130 14 -3 32 -7 40 -10 33 -13
316 -12 385 2 99 19 114 22 135 29 10 3 28 8 39 10 39 7 195 78 261 118 97 58
166 113 252 200 72 74 178 214 178 235 0 5 7 15 15 22 8 7 13 16 10 20 -3 5 1
14 8 22 19 19 68 138 61 149 -3 5 0 9 6 9 7 0 10 6 7 13 -2 6 2 24 9 38 7 15
10 29 7 32 -3 4 0 13 6 21 7 8 10 20 6 26 -4 6 -1 17 5 25 7 8 10 22 6 30 -3
8 -2 15 2 15 8 0 9 16 17 188 2 67 1 122 -3 122 -4 0 -6 18 -4 40 2 22 0 40
-6 40 -5 0 -7 11 -4 25 2 15 0 25 -7 25 -7 0 -9 4 -6 10 7 12 -35 174 -47 178
-4 2 -8 9 -8 16 0 24 -116 245 -139 266 -4 3 -19 23 -36 45 -48 66 -177 187
-258 243 -118 81 -300 164 -407 186 -14 2 -50 10 -80 16 -55 12 -295 20 -360
13z"/>
</g>
</svg>
